<svg xmlns="http://www.w3.org/2000/svg" width="38.326" height="38.326" viewBox="5583.277 2312.463 38.326 38.326"><path d="m5621.254 2343.254-11.627-11.627 11.626-11.627a1.197 1.197 0 0 0 0-1.693l-5.492-5.494a1.197 1.197 0 0 0-1.693 0l-11.628 11.627-11.627-11.627a1.197 1.197 0 0 0-1.693 0l-5.493 5.493a1.197 1.197 0 0 0 0 1.693l11.627 11.628-11.627 11.627a1.197 1.197 0 0 0 0 1.693l5.493 5.493a1.197 1.197 0 0 0 1.693 0l11.627-11.627 11.627 11.627a1.197 1.197 0 0 0 1.693 0l5.494-5.493a1.197 1.197 0 0 0 0-1.693Z" fill="#06d554" fill-rule="evenodd" data-name="Icon metro-cross"/></svg>